<svg width="488" height="171" viewBox="0 0 488 171" fill="none" xmlns="http://www.w3.org/2000/svg">
<path d="M71.3596 90.0715L94.3868 0H143.577L165.625 89.3723L184.812 0H278.958C297.815 3.93285e-05 314.06 3.39348 327.225 10.7257C337.83 16.4469 346.304 24.1753 352.512 33.8595V0H426.537C438.021 3.13069e-05 448.249 1.79572 456.918 5.75659C465.494 9.52985 472.374 15.1024 477.156 22.5789C482.121 29.961 484.455 38.549 484.455 47.9897C484.455 56.9524 482.502 65.0925 478.113 71.9627C475.492 76.064 472.308 79.5805 468.587 82.4838C474.233 86.5515 478.76 91.7138 482.111 97.9005C486.048 104.746 487.985 112.288 487.985 120.357C487.985 130.065 485.668 138.943 480.794 146.704C475.889 154.516 468.798 160.418 459.918 164.517C450.95 168.656 440.466 170.554 428.743 170.554H352.512V136.622C346.296 146.248 337.817 153.994 327.224 159.827C314.059 167.159 297.815 170.554 278.958 170.554H217.288V125.981V75.8592L191.992 170.554H139.836L118.39 86.6539L96.2573 170.554H44.1001L0 0H52.228L71.3596 90.0715ZM401.718 127.525H423.227C429.516 127.525 433.104 126.13 435.127 124.482C437.015 122.92 438.338 120.56 438.338 116.165C438.338 111.858 436.999 109.36 434.859 107.589L434.805 107.544L434.753 107.499C432.543 105.604 428.904 104.143 422.785 104.143H401.718V127.525ZM266.494 125.981H276.972C288.119 125.981 295.991 124.175 301.255 121.282C306.594 118.2 310.165 114.033 312.264 108.62L312.28 108.58L312.296 108.541C314.766 102.364 316.132 94.6764 316.132 85.2764C316.132 75.7053 314.759 68.0495 312.317 62.0656L312.279 61.9747L312.245 61.8829C310.13 56.3181 306.567 52.2086 301.314 49.3025L301.257 49.2711L301.2 49.2387C295.967 46.2322 288.123 44.3518 276.972 44.3518H266.494V85.1663V125.981ZM401.718 63.5419H420.8C426.753 63.5419 429.912 62.1681 431.585 60.696L431.643 60.6444L431.703 60.5946C433.395 59.1621 434.587 57.0363 434.587 53.0645C434.587 49.0926 433.395 46.9669 431.703 45.5344L431.575 45.4269L431.453 45.3133C429.806 43.7985 426.652 42.3659 420.579 42.3659H401.718V63.5419Z" fill="#131313"/>
</svg>
